# xmcd
#
# Track frame offsets:
# 150
# 17463
# 39088
# 61866
# 80889
# 99575
# 120507
# 138691
# 156401
# 176083
# 195462
# 213928
#
# Disc length: 3146 seconds
#
#
# Revision: 2
# Processed by: cddbd v1.5.1PL0 Copyright (c) Steve Scherf et al.
# Submitted via: FreeRIP 2.943 
#
DISCID=9d0c480c
DTITLE=周杰倫 - 11月的蕭邦
DYEAR=2005
DGENRE=R&B
TTITLE0=01夜曲
TTITLE1=02藍色風暴
TTITLE2=03髮如雪
TTITLE3=04黑色毛衣
TTITLE4=05四面楚歌
TTITLE5=06楓
TTITLE6=07浪漫手機
TTITLE7=08逆鱗
TTITLE8=09麥芽糖
TTITLE9=10珊瑚海
TTITLE10=飄移
TTITLE11=一路向北
EXTD=
EXTT0=
EXTT1=
EXTT2=
EXTT3=
EXTT4=
EXTT5=
EXTT6=
EXTT7=
EXTT8=
EXTT9=
EXTT10=
EXTT11=
PLAYORDER=
